<svg version="1.2" xmlns="http://www.w3.org/2000/svg" viewBox="0 0 1145 462" width="1145" height="462">
	<title>GAMECODE-AI-CS6-ai</title>
	<defs>
		<linearGradient id="g1" x1="897.7" y1="197.7" x2="522.6" y2="468.8" gradientUnits="userSpaceOnUse">
			<stop offset="0" stop-color="#ffae48"/>
			<stop offset="1" stop-color="#e72d5d"/>
		</linearGradient>
		<linearGradient id="g2" x1="763.2" y1="17.9" x2="394.4" y2="284.5" gradientUnits="userSpaceOnUse">
			<stop offset="0" stop-color="#ffae48"/>
			<stop offset="1" stop-color="#e72d5d"/>
		</linearGradient>
		<linearGradient id="g3" x1="817.6" y1="86.3" x2="448.8" y2="353" gradientUnits="userSpaceOnUse">
			<stop offset="0" stop-color="#ffae48"/>
			<stop offset="1" stop-color="#e72d5d"/>
		</linearGradient>
		<linearGradient id="g4" x1="774.1" y1="40.6" x2="415.6" y2="299.7" gradientUnits="userSpaceOnUse">
			<stop offset="0" stop-color="#ffae48"/>
			<stop offset="1" stop-color="#e72d5d"/>
		</linearGradient>
	</defs>
	<style>
		tspan { white-space:pre } 
		.t0 { font-size: 107px;fill: #e72d5d;font-weight: 700;font-family: "Ubuntu-Bold", "Ubuntu" } 
		.t1 { font-size: 30px;fill: #ffae48;font-weight: 700;font-family: "Ubuntu-Bold", "Ubuntu" } 
		.s2 { fill: url(#g1) } 
		.s3 { fill: url(#g2) } 
		.s4 { fill: url(#g3) } 
		.s5 { fill: url(#g4) } 
	</style>
	<g id="Layer 1">
		<text id="MYGIFTCARDSTATION" style="transform: matrix(1,0,0,1,1.072,404.402)" >
			<tspan x="0" y="0" class="t0">M</tspan><tspan  y="0" class="t0">Y</tspan><tspan  y="0" class="t0">G</tspan><tspan  y="0" class="t0">I</tspan><tspan  y="0" class="t0">F</tspan><tspan  y="0" class="t0">T</tspan><tspan  y="0" class="t0">C</tspan><tspan  y="0" class="t0">A</tspan><tspan  y="0" class="t0">R</tspan><tspan  y="0" class="t0">D</tspan><tspan  y="0" class="t0">S</tspan><tspan  y="0" class="t0">T</tspan><tspan  y="0" class="t0">A</tspan><tspan  y="0" class="t0">T</tspan><tspan  y="0" class="t0">I</tspan><tspan  y="0" class="t0">O</tspan><tspan  y="0" class="t0">N
</tspan>
		</text>
		<text id="LARGEST FREE GIFT CODES DATABASE" style="transform: matrix(1,0,0,1,295.005,455.022)" >
			<tspan x="0" y="0" class="t1">L</tspan><tspan  y="0" class="t1">A</tspan><tspan  y="0" class="t1">R</tspan><tspan  y="0" class="t1">G</tspan><tspan  y="0" class="t1">E</tspan><tspan  y="0" class="t1">S</tspan><tspan  y="0" class="t1">T</tspan><tspan  y="0" class="t1"> </tspan><tspan  y="0" class="t1">F</tspan><tspan  y="0" class="t1">R</tspan><tspan  y="0" class="t1">E</tspan><tspan  y="0" class="t1">E</tspan><tspan  y="0" class="t1"> </tspan><tspan  y="0" class="t1">G</tspan><tspan  y="0" class="t1">I</tspan><tspan  y="0" class="t1">F</tspan><tspan  y="0" class="t1">T</tspan><tspan  y="0" class="t1"> </tspan><tspan  y="0" class="t1">C</tspan><tspan  y="0" class="t1">O</tspan><tspan  y="0" class="t1">D</tspan><tspan  y="0" class="t1">E</tspan><tspan  y="0" class="t1">S</tspan><tspan  y="0" class="t1"> </tspan><tspan  y="0" class="t1">D</tspan><tspan  y="0" class="t1">A</tspan><tspan  y="0" class="t1">T</tspan><tspan  y="0" class="t1">A</tspan><tspan  y="0" class="t1">B</tspan><tspan  y="0" class="t1">A</tspan><tspan  y="0" class="t1">S</tspan><tspan  y="0" class="t1">E</tspan><tspan  y="0" class="t1">
</tspan>
		</text>
		<g id="&lt;Group&gt;">
			<g id="&lt;Group&gt;">
				<path id="&lt;Compound Path&gt;" fill-rule="evenodd" class="s2" d="m434.6 298.6c-12.9 0-23.7-6.8-32.2-20.3-18.2-28.9-20.9-74.7-7.5-125.8 12.8-49 38.5-93.4 68.7-118.9 19.2-16.3 35.5-23.9 51.1-23.9 14.9 0 26.3 6.9 37.2 13.5 11.3 6.8 21.9 13.2 37.1 13.2 15.2 0 25.8-6.4 37.1-13.2 10.9-6.6 22.3-13.5 37.2-13.5 15.6 0 31.9 7.6 51.1 23.9 30.2 25.5 55.9 69.9 68.7 118.9 13.4 51.1 10.7 96.9-7.5 125.8-8.5 13.5-19.3 20.3-32.2 20.3-18.7 0-37.6-14.6-59.5-31.6-27.6-21.3-58.9-45.6-94.9-45.6-36 0-67.3 24.3-94.9 45.6-21.9 17-40.8 31.6-59.5 31.6q0 0 0 0zm80.1-266.1c-9.8 0-21.7 6.1-36.4 18.5-26.7 22.6-49.6 62.7-61.4 107.3-11.6 44.3-9.8 84.6 4.8 107.9 6.1 9.6 10.9 9.6 12.9 9.6 10.9 0 27.7-13 45.5-26.8 29-22.4 65.1-50.4 108.9-50.4 43.8 0 79.9 28 108.9 50.4 17.8 13.8 34.6 26.8 45.5 26.8 2 0 6.8 0 12.9-9.6 14.6-23.3 16.4-63.6 4.8-107.9-11.8-44.6-34.7-84.7-61.4-107.3-14.7-12.4-26.6-18.5-36.4-18.5-8.5 0-16 4.5-25.4 10.3-12.2 7.3-27.3 16.4-48.9 16.4-21.6 0.1-36.7-9.1-48.9-16.4-9.4-5.8-16.9-10.3-25.4-10.3z"/>
			</g>
			<g id="&lt;Group&gt;">
				<g id="&lt;Group&gt;">
					<path id="&lt;Path&gt;" class="s3" d="m522.9 186.8c-1.9 0-3.9-0.5-5.7-1.5l-73.3-42.4c-3.5-2-5.7-5.8-5.7-9.9 0-4 2.2-7.8 5.7-9.8l73.3-42.4c5.5-3.1 12.4-1.2 15.6 4.2 3.1 5.5 1.3 12.4-4.2 15.6l-56.2 32.4 56.2 32.5c5.5 3.2 7.3 10.1 4.2 15.6-2.1 3.6-6 5.7-9.9 5.7z"/>
				</g>
				<g id="&lt;Group&gt;">
					<path id="&lt;Path&gt;" class="s4" d="m655.1 186.8c-3.9 0-7.8-2.1-9.9-5.7-3.1-5.5-1.3-12.4 4.2-15.6l56.2-32.5-56.2-32.4c-5.5-3.2-7.3-10.1-4.2-15.6 3.2-5.4 10.1-7.3 15.6-4.2l73.3 42.4c3.5 2 5.7 5.8 5.7 9.8 0 4.1-2.2 7.9-5.7 9.9l-73.3 42.4c-1.8 1-3.8 1.5-5.7 1.5z"/>
				</g>
				<g id="&lt;Group&gt;">
					<path id="&lt;Path&gt;" class="s5" d="m565.3 185.4c-1.9 0-3.9-0.5-5.7-1.5-5.4-3.2-7.3-10.1-4.1-15.6l47.3-81.9c3.1-5.5 10.1-7.3 15.6-4.2 5.4 3.2 7.3 10.1 4.1 15.6l-47.3 81.9c-2.1 3.7-5.9 5.7-9.9 5.7z"/>
				</g>
			</g>
		</g>
	</g>
</svg>